<svg xmlns="http://www.w3.org/2000/svg" xmlns:xlink="http://www.w3.org/1999/xlink" width="390.44" height="500" viewBox="0 0 390.44 500"><defs><linearGradient id="a" x1="-8165.07" y1="-7596.76" x2="-7243.82" y2="-7596.76" gradientTransform="matrix(0.42, 0, 0, -0.42, 3765.23, -2719.59)" gradientUnits="userSpaceOnUse"><stop offset="0" stop-color="#ffdba7"/><stop offset="0.13" stop-color="#c3b296"/><stop offset="0.25" stop-color="#ffe7c4"/><stop offset="0.5" stop-color="#c29977"/><stop offset="0.64" stop-color="#ffe7c4"/><stop offset="1" stop-color="#c29977"/></linearGradient><linearGradient id="b" x1="-7653.56" y1="-7473.78" x2="-7494.53" y2="-7314.78" gradientTransform="matrix(0.42, 0, 0, -0.42, 3765.23, -2719.59)" gradientUnits="userSpaceOnUse"><stop offset="0.06" stop-color="#ffdba7"/><stop offset="0.5" stop-color="#c3b296"/><stop offset="1" stop-color="#ffdba7"/></linearGradient><linearGradient id="c" x1="-7841.05" y1="-7478.26" x2="-7666.3" y2="-7303.53" xlink:href="#b"/><linearGradient id="d" x1="-7484.91" y1="-7500.8" x2="-7312.12" y2="-7328.01" xlink:href="#b"/><linearGradient id="e" x1="-8114.73" y1="-7514.21" x2="-7910.39" y2="-7309.88" xlink:href="#b"/><linearGradient id="f" x1="-7947.88" y1="-7461.94" x2="-7815.37" y2="-7329.43" xlink:href="#b"/><linearGradient id="g" x1="-7917.59" y1="-7228.85" x2="-7492.09" y2="-7228.85" xlink:href="#a"/><linearGradient id="h" x1="-8009.02" y1="-7801.11" x2="-7415.28" y2="-7801.11" xlink:href="#a"/></defs><path d="M684.47,287.31a234.51,234.51,0,0,1-68.08,10.25c-20.27,0-39.26-2.87-56.32-8.54a137.06,137.06,0,0,1-54.38-33.28L500,250l-5.74,5.74a136.16,136.16,0,0,1-54.53,33.18c-17.2,5.64-36.29,8.5-56.71,8.5a239.53,239.53,0,0,1-67.45-9.82L304.78,284V530.34c0,34.57,9.33,67.38,27.71,97.52,14.91,24.42,35.71,47.06,61.84,67.28,45.46,35.17,93.56,52.57,105,54.61l1.41.25,1.42-.25C512,748,560.93,730.64,606.55,695c25.88-20.24,46.49-42.88,61.25-67.29a185.74,185.74,0,0,0,27.42-97.35V283.57Z" transform="translate(-304.78 -250)" fill="url(#a)"/><path d="M500.77,737.5c-10.68-2.29-56-18.82-99-52.11-25-19.3-44.77-40.83-58.89-64A172.81,172.81,0,0,1,317,530.18V300.59a253.36,253.36,0,0,0,66,8.86c47.29,0,87.64-14.67,117.09-42.46,29.78,28.27,68.94,42.6,116.43,42.6a248.78,248.78,0,0,0,66.67-9.25V530.18a173.69,173.69,0,0,1-25.68,91.05c-14,23.14-33.61,44.72-58.34,64C556.29,718.66,511.37,735.18,500.77,737.5Z" transform="translate(-304.78 -250)" fill="#d71920"/><path d="M500,272.59a153.2,153.2,0,0,1-55.23,31.62c-18.83,6.18-39.63,9.31-61.83,9.31A260.22,260.22,0,0,1,321,305.88v224.3a168.93,168.93,0,0,0,25.35,89.05c13.87,22.72,33.35,43.88,57.91,62.88,41.5,32.12,84.84,48.37,96.49,51.16,11.54-2.77,54.51-19,95.75-51.26,24.32-19,43.62-40.18,57.36-62.89A169.77,169.77,0,0,0,679,530.18V305.68a255,255,0,0,1-62.58,8c-22,0-42.7-3.15-61.43-9.37a153.11,153.11,0,0,1-55-31.76m0-11.23c35,35.08,79.61,44.2,116.4,44.2a238.34,238.34,0,0,0,70.74-10.71V530.18C687.14,673.89,521,738,500.77,741.61c-20.1-3.57-187.89-67.36-187.89-211.43V295.11a243.24,243.24,0,0,0,70,10.3c37.07,0,82-9,117.06-44.06Z" transform="translate(-304.78 -250)" fill="#fff"/><path d="M585.29,457.75c-17.37-3.27-35.61-4.8-54.25-5.87-1-.06-8.5-.38-8.5-8.57V373.09h51.71c6.87,0,10.9,3.82,10.9,8.2v10.78l-18-1c-2,0-3.71-1.45-3.73-3.11v-4.84h-19v59.07s14.84.59,19,1.52V411.29c-.53,0-9.49-.58-9.49-.58l3.55-9.81,17.25.64s10.57.43,10.57,11.51C585.29,413.06,585.3,456.18,585.29,457.75Z" transform="translate(-304.78 -250)" fill="#fff"/><path d="M586.44,459.17V413.06c0-12.09-11.58-12.7-11.71-12.7l-18.11-.66-4.36,12.09,1.58.11c1.64.11,6.21.4,8.39.52v29.84c-4.49-.66-13.48-1.1-16.68-1.24V384.31h16.7V388c0,2.29,2.2,4.21,4.84,4.29l19.31,1v-12c0-4.67-4.23-9.38-12.15-9.38H521.36v71.4c0,5.77,3.58,9.41,9.61,9.75,15.32.88,35.31,2.35,54.1,5.85l1.39.26Zm-12.17-84.9c5.76,0,9.82,2.89,9.82,7v9.53l-16.85-.91c-1.36,0-2.57-.93-2.57-1.92v-6H543.24v61.4l1.09.06c.16,0,14.79.59,18.84,1.48l1.44.32V410.16h-1.2c-.45,0-4.54-.26-7.81-.47l2.73-7.51,16.35.6c.39,0,9.43.52,9.43,10.33v43.27c-18.52-3.34-38-4.76-53-5.63-2.74-.15-7.34-1.32-7.34-7.39v-69Z" transform="translate(-304.78 -250)" fill="url(#b)"/><path d="M511.2,373.09H489.52v27l-19.18-27H448.52v80.52c7.18-.87,14.46-1.1,21.82-1.56V399.7l19.12,27.55v23.87q6.29-.18,12.62-.18c3.09,0,6.15,0,9.22.1Z" transform="translate(-304.78 -250)" fill="#fff"/><path d="M448.56,454.73c4.86-.54,9.89-.82,14.75-1.09,2.34-.13,4.67-.26,7-.43l1.09-.07V403.48l16.76,24.14-.06,24.71h1.23c4.28-.11,8.51-.17,12.58-.17,2.76,0,5.68,0,9.2.1h1.21V371.91H488.29v24.5l-17.4-24.5H447.26v83Zm21.11-80.4,21,29.55.06-29.55h19.36v75.51c-3-.07-5.58-.07-8-.07-3.7,0-7.54.05-11.43.14v-23l-21.5-31v55c-2,.13-3.93.24-5.89.35-4.46.25-9.07.5-13.59,1v-78Z" transform="translate(-304.78 -250)" fill="url(#c)"/><path d="M657.12,397.57v-15c0-6.21-4.83-9.5-10.46-9.5h-51v30c0,9.13,10.08,10.27,10.08,10.27s23.47,2.64,29.5,3.44v38.47c-5.71-1.63-17.75-4-17.75-4V434.87a4.19,4.19,0,0,0-3.42-3.77c-5.45-1-18.41-2.93-18.41-2.93V459.8a357.32,357.32,0,0,1,61.42,18.43V419.91c0-11.55-10.66-13.32-10.66-13.32h0s-9.17-1.54-28.9-3V383.17h17.68v7.74c0,4,4.14,4.36,4.14,4.36Z" transform="translate(-304.78 -250)" fill="#fff"/><path d="M658.31,419.91a14.18,14.18,0,0,0-11.75-14.5h-.19c-1.1-.24-3.13-.49-6.84-.94-4.2-.5-11.17-1.25-20.81-2V384.38H634v6.55a5.53,5.53,0,0,0,5.19,5.52l19.06,2.49V382.59a10.08,10.08,0,0,0-3.55-8,12.62,12.62,0,0,0-8.1-2.69H594.48v31.18c0,8.06,7.27,11,11.12,11.44.23,0,21.24,2.34,28.46,3.27v35.88c-5-1.31-12.7-2.88-15.38-3.41V434.91a5.46,5.46,0,0,0-4.36-4.93c-5.4-1-18.3-2.92-18.43-2.92l-1.37-.21v34l.94.2a358.21,358.21,0,0,1,61.22,18.37l1.63.66Zm-61.42,9.66c3.47.52,12.67,1.95,17,2.7a3.1,3.1,0,0,1,2.49,2.63v17.29l1,.18c.12,0,12.05,2.37,17.64,4l1.52.43V415.7l-1-.13c-6-.81-29.15-3.42-29.52-3.46s-9-1.15-9-9.09V374.25H646.7a10.24,10.24,0,0,1,6.54,2.18,7.76,7.76,0,0,1,2.7,6.17v13.63l-16.43-2.18c-.13,0-3.08-.31-3.08-3.17V382h-20v22.69l1.09.07c19.52,1.5,28.71,3,28.79,3l.2-1.09h0l-.19,1.09A11.88,11.88,0,0,1,656,419.91v56.62a361.73,361.73,0,0,0-59.07-17.64C596.87,451.36,596.89,434.52,596.89,429.57Z" transform="translate(-304.78 -250)" fill="url(#d)"/><path d="M406.94,459.68l-14.05-47.36-5.71.53,17.25-39.76H381.68l-15.27,32.27V373.09h-24V478.36a215.15,215.15,0,0,1,24-8.67V416.25l3.94-.67,13,49.18C389.85,462.72,406.94,459.68,406.94,459.68Z" transform="translate(-304.78 -250)" fill="#fff"/><path d="M343,479.44a214.65,214.65,0,0,1,23.85-8.62l.85-.27V417.18l1.88-.32,13.06,49.35,1.17-.37c6.31-1.94,23.22-5,23.39-5l1.3-.24-14.7-49.56-4.69.44,17.15-39.58H380.93l-13.28,28.16V371.91H341.29V480.19Zm22.33-105.11v36.32l17.15-36.32h20.2l-17.34,39.89,6.74-.63,13.4,45.19c-3.87.7-15.23,2.84-21.18,4.49l-13-49.08-6,1v53.66a226.86,226.86,0,0,0-21.61,7.75V374.33Z" transform="translate(-304.78 -250)" fill="url(#e)"/><path d="M437,373.09H414.66V458A215.66,215.66,0,0,1,437,454.76Z" transform="translate(-304.78 -250)" fill="#fff"/><path d="M414.89,459.19a213.42,213.42,0,0,1,22.21-3.27l1.1-.11v-83.9H413.47v87.6Zm20.94-84.86v79.38c-9.65,1-17,2.34-20,2.93V374.33Z" transform="translate(-304.78 -250)" fill="url(#f)"/><path d="M519.63,353.87h-8.22v-6h-7.3v6.93a3.77,3.77,0,0,0,3.75,3.77h19V329.61h-8.94l1.7,4.69ZM586.2,343.5s3.63-1.08,3.63-3.79v-6.82a3.27,3.27,0,0,0-3.27-3.28H562.83l1.72,4.68-.07,24.23h22.25a3.28,3.28,0,0,0,3.27-3.28v-7.88c0-2.87-3.72-3.81-3.72-3.81m-14.52-9.24h10.78v6.8H571.76Zm10.91,19.5H571.76v-8h10.91Zm-43.94-24.2.06,4.53-8.35,24.36h7l2.46-7.56h10.9l2.46,7.56h7L551,329.61ZM549.16,346h-7.63l3.84-11.86ZM432.74,329.61H409.66l1.66,4.7v24.23h7.3v-9.88h14.45a4.05,4.05,0,0,0,1.94-.4,3.1,3.1,0,0,0,1.64-2.12,6.66,6.66,0,0,0,.13-1.18V333.65a4,4,0,0,0-4-4M429.57,344H418.66v-9.69h10.91Zm30.78-9.69-1.65-4.66h8.82v28.93H445.71a3.72,3.72,0,0,1-3.7-3.71V334.27l-1.66-4.66h8.86V354h11.14Zm31.83,15V329.61h7.21v28.93h-7.84L480,340.13v18.41h-7.3V334.3l-1.57-4.63h9.07l12,19.63Z" transform="translate(-304.78 -250)" fill="url(#g)"/><path d="M500,264.71a147,147,0,0,1-56.94,34.07c-18.26,6-38.47,9-60.05,9a254.28,254.28,0,0,1-67.62-9.41V530.18a174.28,174.28,0,0,0,26.18,92c14.23,23.33,34.2,45,59.28,64.44,43.67,33.79,89.78,50.44,100,52.49,10.1-2,55.84-18.68,99.25-52.61,24.86-19.45,44.62-41.13,58.73-64.45a175.56,175.56,0,0,0,25.91-91.9V298.12a249.44,249.44,0,0,1-68.31,9.81c-21.41,0-41.47-3-59.63-9.06A147.5,147.5,0,0,1,500,264.71m116.4,40.8a238.34,238.34,0,0,0,70.74-10.71V530.18C687.14,673.89,521,738,500.77,741.61c-20.1-3.57-187.89-67.36-187.89-211.43V295.11a243.11,243.11,0,0,0,70.06,10.26c37.07,0,82-9,117.06-44.06C535.05,296.39,579.61,305.51,616.4,305.51Z" transform="translate(-304.78 -250)" fill="#4864bf"/><path d="M544.85,654.68c-8.42-10.48-6.55-31.33-6.55-31.33S523.82,653.8,550,670c-6.71.51-13.65-2.87-13.65-2.87s9.54,13.31,24.81,13.31c11.62,0,16.36-6.7,16.36-6.7a26.94,26.94,0,0,0-5.34-3.91c9.84-2.24,11.2-8.15,11.2-8.15C578.68,663.89,556.71,669.28,544.85,654.68Zm61.24-72.94c13,5.26-2.83,22.27-2.83,22.27s-.61-19.62-.61-20L600,586.13c-6.67-4.74-13.4-.63-13.4-.63L585,581.6c-3.31,11.46-14.29,22.15-14.29,22.15s2.78-13.68,4.36-24c0,0,16-4,31.07,2Zm-15.83,59.6c.55,2.11.14,10.52-5.67,15.83-3.55,3.24-8.47,4.77-14.66,4.87a33.63,33.63,0,0,1-20.06-6.64,34.56,34.56,0,0,0,17.77-16.85s1.2,10.34-3.37,16.77a19.43,19.43,0,0,1,12.51.39l.39-1.91s9.64-3.48,13.09-12.46ZM370.92,562.75S381,517.2,431.71,501.34c-29.21,1.23-40.62,9.69-40.62,9.69s22.75-26.85,67.74-26.85c31.7,0,56.51,18,56.51,18s-36.5-9.23-66.67-2.56a53.71,53.71,0,0,1,14.7,6.55h0C399.94,508.76,370.92,562.75,370.92,562.75Zm193.16,39c-10.64,20.59-9.2,39-9.2,39s-6.8-6.72-6.08-19S558.39,601.7,564.08,601.7ZM521.65,499.45s-9.87-11.61-32.92-19.53c-20.22-6.95-42.53-6.75-42.53-6.75s18.86-6.78,43.72-3.27a79.36,79.36,0,0,1,42.86,20.51c-3-8.85-15.11-17.58-15.11-17.58h0c23.29,6.64,38.31,34,38.31,34h0c-13.09-8.18-34.33-7.36-34.33-7.36Zm100.9,62.46L619.65,572c-2.12,6.66-6.21,7-7.11,7h-.19l-.91-.07.29-.89c2-5.9,8.39-13.31,8.66-13.63ZM450.61,684.31s-18.2-20-20.82-48c-3.94,13.24-4.64,32.14-4.64,32.14s-24.32-49.84,19.57-102.67c0,0-11.44,26.24-10,41.83a77.09,77.09,0,0,1,25.09-29.75C427.3,633.45,450.61,684.31,450.61,684.31Zm46.74-82.25s-14.28,52.72,14.34,92.17c-11.54-6-23-20.74-26.7-31.7,2.84,28.42,13.38,41.8,13.38,41.8s-22-10.92-30.73-43.18c-.85,11.67,1.24,32.15,1.24,32.15a114.24,114.24,0,0,1-14.43-60c1.9-42.16,24.24-59.31,24.24-59.31s-14.48,24.12-10.91,54.76c2.86-20.13,18.49-35.32,18.49-35.32s-8.28,27.72-3.72,46.26c2.12-20,14.8-37.65,14.8-37.65Zm-59.07-49.39c-40.69,51.78-32.44,97.14-32.36,97.58l.89,4.53-2.18-4c-7.92-14.34-7.42-47.49-5.05-62.41-6.36,11.64-11.07,28.83-13.09,41.78l-.53,3.43-.88-3.35c-1.82-6.91-6.66-29.89,2.43-50.71-9.66,8.13-16,21.4-16,21.4s-.63-24,21.18-50.06c18.19-21.72,48.45-30.35,48.45-30.35s-31.53,21-39.63,40a78.83,78.83,0,0,1,27.89-17s-16.15,16.17-21.37,30.93c15.12-18.33,32-23.93,32-23.93l-1.76,2.19Zm40.56-25.15c-2.78-.57-6.91,0-8.94.27a14.81,14.81,0,0,1,5.45,6.28,12.31,12.31,0,0,1-6,1.33,16.26,16.26,0,0,1-15.05-11s-7,2.74-4.74,9.59c3.36,10.08,18.14,9,18.14,9-15.95,4-24.55-4.6-25-11.87-.39-6.71,3.11-9.69,6.84-11.57,11.64-5.68,29.28,8,29.28,8Zm62,80.25c1.81-12.46-3.76-20.35-6.51-23.2,0,4.21-.85,13.76-5.54,19l-1.72,2,.47-2.56c.54-2.9,2.51-18.08-11.4-31.73-7.43-7.33-7.12-17.6-6.34-22.9-7.8,12.45-2.63,26.09-2.63,26.09a21.28,21.28,0,0,1-17.3-11.79c-3.83-7.88-2.52-19.68,8.57-28.76a20.28,20.28,0,0,1-17.53-2.7s15.4-3.81,20.78-12.54c-7,1.65-20.66,2.71-31.94-9.61l-2.18-2.42,3,1.27c13.67,5.69,27.58,2.43,30.23,1.72h.08c22.11-7.31,40.34-4.08,51.73-.08,12.39,4.35,19.43,10.34,19.72,10.59l1.23,1.1h-.1l.06,0c-6.65,9.76-17.77,5.05-17.79,5s-4-9.35-15.44-6.72c-1.6.37-10,4.24-19.45-3a17,17,0,0,0,5.61,14.24,16.35,16.35,0,0,0,17.85,2.31c-8.53-.4-10.38-5.54-10.38-5.54s9.87,5.77,17.28,1.85a16.58,16.58,0,0,0,17.9,2.19h.22v-.16h.89c24.71,1,40.09,12.59,48.64,22.12L622,557l-4-2.33a32,32,0,0,0-22-3.74c21,7.7,14.54,27.9,14.54,27.9s-8.75-6.24-43.36-3.84c-6.16.43-8.94-3-8.42-6.23,1-6,6.84-7.5,10.25-8.2-15.13-4.87-17.59,6.89-17.59,6.89s-4.1-9.35,7.28-15.26c-5.07,0-15.67,3.56-15.26,15.17s14,18,14,18l-17,25.66.49-3.22Z" transform="translate(-304.78 -250)" fill="url(#h)"/></svg>